M48
;DRILL file {KiCad 5.0.2-bee76a0~70~ubuntu16.04.1} date Tue 30 Jul 2019 03:32:43 PM CEST
;FORMAT={-:-/ absolute / inch / decimal}
FMAT,2
INCH,TZ
T1C0.0157
T2C0.0315
T3C0.0394
%
G90
G05
T1
X6.258Y-2.9388
X6.2661Y-2.8481
X6.3287Y-2.7854
X6.3921Y-3.0075
X6.45Y-3.25
X6.4542Y-2.874
X6.475Y-3.025
X6.525Y-2.9
X6.55Y-2.7667
X6.5619Y-3.125
X6.575Y-2.85
X6.7566Y-2.9353
X6.775Y-3.075
X6.775Y-3.3
X6.7931Y-3.1215
X6.7972Y-2.9028
X6.801Y-3.2016
X6.8435Y-2.875
X6.875Y-2.925
X6.875Y-3.0063
X6.9795Y-2.95
X6.9996Y-2.8606
X7.0056Y-2.9204
X7.1555Y-3.0955
X7.2859Y-3.0906
X7.3819Y-2.874
T2
X7.1457Y-2.9528
X7.2441Y-2.9528
T3
X7.3622Y-3.2677
X6.0236Y-2.815
X6.2598Y-3.1102
X6.2598Y-3.2087
X7.1622Y-2.7953
X7.2622Y-2.7953
X7.3622Y-2.7953
T0
M30
