G04 #@! TF.GenerationSoftware,KiCad,Pcbnew,5.0.2-bee76a0~70~ubuntu16.04.1*
G04 #@! TF.CreationDate,2019-07-30T15:32:40+02:00*
G04 #@! TF.ProjectId,hw-TS1B,68772d54-5331-4422-9e6b-696361645f70,rev?*
G04 #@! TF.SameCoordinates,Original*
G04 #@! TF.FileFunction,Copper,L1,Top*
G04 #@! TF.FilePolarity,Positive*
%FSLAX46Y46*%
G04 Gerber Fmt 4.6, Leading zero omitted, Abs format (unit mm)*
G04 Created by KiCad (PCBNEW 5.0.2-bee76a0~70~ubuntu16.04.1) date Tue 30 Jul 2019 03:32:40 PM CEST*
%MOMM*%
%LPD*%
G01*
G04 APERTURE LIST*
G04 #@! TA.AperFunction,SMDPad,CuDef*
%ADD10R,0.600000X1.500000*%
G04 #@! TD*
G04 #@! TA.AperFunction,Conductor*
%ADD11C,0.100000*%
G04 #@! TD*
G04 #@! TA.AperFunction,SMDPad,CuDef*
%ADD12C,0.975000*%
G04 #@! TD*
G04 #@! TA.AperFunction,ComponentPad*
%ADD13C,1.600000*%
G04 #@! TD*
G04 #@! TA.AperFunction,ComponentPad*
%ADD14C,1.700000*%
G04 #@! TD*
G04 #@! TA.AperFunction,ComponentPad*
%ADD15O,2.000000X1.700000*%
G04 #@! TD*
G04 #@! TA.AperFunction,ComponentPad*
%ADD16R,1.700000X1.700000*%
G04 #@! TD*
G04 #@! TA.AperFunction,ComponentPad*
%ADD17O,1.700000X1.700000*%
G04 #@! TD*
G04 #@! TA.AperFunction,SMDPad,CuDef*
%ADD18R,1.100000X0.900000*%
G04 #@! TD*
G04 #@! TA.AperFunction,SMDPad,CuDef*
%ADD19R,0.650000X1.220000*%
G04 #@! TD*
G04 #@! TA.AperFunction,ViaPad*
%ADD20C,0.800000*%
G04 #@! TD*
G04 #@! TA.AperFunction,Conductor*
%ADD21C,0.400000*%
G04 #@! TD*
G04 APERTURE END LIST*
D10*
G04 #@! TO.P,U1,1*
G04 #@! TO.N,/TEMP_SNS*
X168275000Y-76360000D03*
G04 #@! TO.P,U1,2*
G04 #@! TO.N,/26MHZ*
X169545000Y-76360000D03*
G04 #@! TO.P,U1,3*
G04 #@! TO.N,/OSC_EN*
X170815000Y-76360000D03*
G04 #@! TO.P,U1,4*
G04 #@! TO.N,/RF_DATA*
X172085000Y-76360000D03*
G04 #@! TO.P,U1,5*
G04 #@! TO.N,/RF_CLK*
X173355000Y-76360000D03*
G04 #@! TO.P,U1,6*
G04 #@! TO.N,Net-(C3-Pad1)*
X174625000Y-76360000D03*
G04 #@! TO.P,U1,7*
G04 #@! TO.N,/SWCLK*
X175895000Y-76360000D03*
G04 #@! TO.P,U1,8*
G04 #@! TO.N,/SWDIO*
X175895000Y-70960000D03*
G04 #@! TO.P,U1,9*
G04 #@! TO.N,/LED*
X174625000Y-70960000D03*
G04 #@! TO.P,U1,10*
G04 #@! TO.N,Net-(U1-Pad10)*
X173355000Y-70960000D03*
G04 #@! TO.P,U1,11*
G04 #@! TO.N,GND*
X172085000Y-70960000D03*
G04 #@! TO.P,U1,12*
G04 #@! TO.N,VDD*
X170815000Y-70960000D03*
G04 #@! TO.P,U1,13*
G04 #@! TO.N,/TEMP_PWR*
X169545000Y-70960000D03*
G04 #@! TO.P,U1,14*
X168275000Y-70960000D03*
G04 #@! TD*
D11*
G04 #@! TO.N,Net-(C1-Pad2)*
G04 #@! TO.C,C1*
G36*
X174267642Y-82301174D02*
X174291303Y-82304684D01*
X174314507Y-82310496D01*
X174337029Y-82318554D01*
X174358653Y-82328782D01*
X174379170Y-82341079D01*
X174398383Y-82355329D01*
X174416107Y-82371393D01*
X174432171Y-82389117D01*
X174446421Y-82408330D01*
X174458718Y-82428847D01*
X174468946Y-82450471D01*
X174477004Y-82472993D01*
X174482816Y-82496197D01*
X174486326Y-82519858D01*
X174487500Y-82543750D01*
X174487500Y-83456250D01*
X174486326Y-83480142D01*
X174482816Y-83503803D01*
X174477004Y-83527007D01*
X174468946Y-83549529D01*
X174458718Y-83571153D01*
X174446421Y-83591670D01*
X174432171Y-83610883D01*
X174416107Y-83628607D01*
X174398383Y-83644671D01*
X174379170Y-83658921D01*
X174358653Y-83671218D01*
X174337029Y-83681446D01*
X174314507Y-83689504D01*
X174291303Y-83695316D01*
X174267642Y-83698826D01*
X174243750Y-83700000D01*
X173756250Y-83700000D01*
X173732358Y-83698826D01*
X173708697Y-83695316D01*
X173685493Y-83689504D01*
X173662971Y-83681446D01*
X173641347Y-83671218D01*
X173620830Y-83658921D01*
X173601617Y-83644671D01*
X173583893Y-83628607D01*
X173567829Y-83610883D01*
X173553579Y-83591670D01*
X173541282Y-83571153D01*
X173531054Y-83549529D01*
X173522996Y-83527007D01*
X173517184Y-83503803D01*
X173513674Y-83480142D01*
X173512500Y-83456250D01*
X173512500Y-82543750D01*
X173513674Y-82519858D01*
X173517184Y-82496197D01*
X173522996Y-82472993D01*
X173531054Y-82450471D01*
X173541282Y-82428847D01*
X173553579Y-82408330D01*
X173567829Y-82389117D01*
X173583893Y-82371393D01*
X173601617Y-82355329D01*
X173620830Y-82341079D01*
X173641347Y-82328782D01*
X173662971Y-82318554D01*
X173685493Y-82310496D01*
X173708697Y-82304684D01*
X173732358Y-82301174D01*
X173756250Y-82300000D01*
X174243750Y-82300000D01*
X174267642Y-82301174D01*
X174267642Y-82301174D01*
G37*
D12*
G04 #@! TD*
G04 #@! TO.P,C1,2*
G04 #@! TO.N,Net-(C1-Pad2)*
X174000000Y-83000000D03*
D11*
G04 #@! TO.N,Net-(C1-Pad1)*
G04 #@! TO.C,C1*
G36*
X176142642Y-82301174D02*
X176166303Y-82304684D01*
X176189507Y-82310496D01*
X176212029Y-82318554D01*
X176233653Y-82328782D01*
X176254170Y-82341079D01*
X176273383Y-82355329D01*
X176291107Y-82371393D01*
X176307171Y-82389117D01*
X176321421Y-82408330D01*
X176333718Y-82428847D01*
X176343946Y-82450471D01*
X176352004Y-82472993D01*
X176357816Y-82496197D01*
X176361326Y-82519858D01*
X176362500Y-82543750D01*
X176362500Y-83456250D01*
X176361326Y-83480142D01*
X176357816Y-83503803D01*
X176352004Y-83527007D01*
X176343946Y-83549529D01*
X176333718Y-83571153D01*
X176321421Y-83591670D01*
X176307171Y-83610883D01*
X176291107Y-83628607D01*
X176273383Y-83644671D01*
X176254170Y-83658921D01*
X176233653Y-83671218D01*
X176212029Y-83681446D01*
X176189507Y-83689504D01*
X176166303Y-83695316D01*
X176142642Y-83698826D01*
X176118750Y-83700000D01*
X175631250Y-83700000D01*
X175607358Y-83698826D01*
X175583697Y-83695316D01*
X175560493Y-83689504D01*
X175537971Y-83681446D01*
X175516347Y-83671218D01*
X175495830Y-83658921D01*
X175476617Y-83644671D01*
X175458893Y-83628607D01*
X175442829Y-83610883D01*
X175428579Y-83591670D01*
X175416282Y-83571153D01*
X175406054Y-83549529D01*
X175397996Y-83527007D01*
X175392184Y-83503803D01*
X175388674Y-83480142D01*
X175387500Y-83456250D01*
X175387500Y-82543750D01*
X175388674Y-82519858D01*
X175392184Y-82496197D01*
X175397996Y-82472993D01*
X175406054Y-82450471D01*
X175416282Y-82428847D01*
X175428579Y-82408330D01*
X175442829Y-82389117D01*
X175458893Y-82371393D01*
X175476617Y-82355329D01*
X175495830Y-82341079D01*
X175516347Y-82328782D01*
X175537971Y-82318554D01*
X175560493Y-82310496D01*
X175583697Y-82304684D01*
X175607358Y-82301174D01*
X175631250Y-82300000D01*
X176118750Y-82300000D01*
X176142642Y-82301174D01*
X176142642Y-82301174D01*
G37*
D12*
G04 #@! TD*
G04 #@! TO.P,C1,1*
G04 #@! TO.N,Net-(C1-Pad1)*
X175875000Y-83000000D03*
D11*
G04 #@! TO.N,GND*
G04 #@! TO.C,C3*
G36*
X162330142Y-70051174D02*
X162353803Y-70054684D01*
X162377007Y-70060496D01*
X162399529Y-70068554D01*
X162421153Y-70078782D01*
X162441670Y-70091079D01*
X162460883Y-70105329D01*
X162478607Y-70121393D01*
X162494671Y-70139117D01*
X162508921Y-70158330D01*
X162521218Y-70178847D01*
X162531446Y-70200471D01*
X162539504Y-70222993D01*
X162545316Y-70246197D01*
X162548826Y-70269858D01*
X162550000Y-70293750D01*
X162550000Y-71206250D01*
X162548826Y-71230142D01*
X162545316Y-71253803D01*
X162539504Y-71277007D01*
X162531446Y-71299529D01*
X162521218Y-71321153D01*
X162508921Y-71341670D01*
X162494671Y-71360883D01*
X162478607Y-71378607D01*
X162460883Y-71394671D01*
X162441670Y-71408921D01*
X162421153Y-71421218D01*
X162399529Y-71431446D01*
X162377007Y-71439504D01*
X162353803Y-71445316D01*
X162330142Y-71448826D01*
X162306250Y-71450000D01*
X161818750Y-71450000D01*
X161794858Y-71448826D01*
X161771197Y-71445316D01*
X161747993Y-71439504D01*
X161725471Y-71431446D01*
X161703847Y-71421218D01*
X161683330Y-71408921D01*
X161664117Y-71394671D01*
X161646393Y-71378607D01*
X161630329Y-71360883D01*
X161616079Y-71341670D01*
X161603782Y-71321153D01*
X161593554Y-71299529D01*
X161585496Y-71277007D01*
X161579684Y-71253803D01*
X161576174Y-71230142D01*
X161575000Y-71206250D01*
X161575000Y-70293750D01*
X161576174Y-70269858D01*
X161579684Y-70246197D01*
X161585496Y-70222993D01*
X161593554Y-70200471D01*
X161603782Y-70178847D01*
X161616079Y-70158330D01*
X161630329Y-70139117D01*
X161646393Y-70121393D01*
X161664117Y-70105329D01*
X161683330Y-70091079D01*
X161703847Y-70078782D01*
X161725471Y-70068554D01*
X161747993Y-70060496D01*
X161771197Y-70054684D01*
X161794858Y-70051174D01*
X161818750Y-70050000D01*
X162306250Y-70050000D01*
X162330142Y-70051174D01*
X162330142Y-70051174D01*
G37*
D12*
G04 #@! TD*
G04 #@! TO.P,C3,2*
G04 #@! TO.N,GND*
X162062500Y-70750000D03*
D11*
G04 #@! TO.N,Net-(C3-Pad1)*
G04 #@! TO.C,C3*
G36*
X164205142Y-70051174D02*
X164228803Y-70054684D01*
X164252007Y-70060496D01*
X164274529Y-70068554D01*
X164296153Y-70078782D01*
X164316670Y-70091079D01*
X164335883Y-70105329D01*
X164353607Y-70121393D01*
X164369671Y-70139117D01*
X164383921Y-70158330D01*
X164396218Y-70178847D01*
X164406446Y-70200471D01*
X164414504Y-70222993D01*
X164420316Y-70246197D01*
X164423826Y-70269858D01*
X164425000Y-70293750D01*
X164425000Y-71206250D01*
X164423826Y-71230142D01*
X164420316Y-71253803D01*
X164414504Y-71277007D01*
X164406446Y-71299529D01*
X164396218Y-71321153D01*
X164383921Y-71341670D01*
X164369671Y-71360883D01*
X164353607Y-71378607D01*
X164335883Y-71394671D01*
X164316670Y-71408921D01*
X164296153Y-71421218D01*
X164274529Y-71431446D01*
X164252007Y-71439504D01*
X164228803Y-71445316D01*
X164205142Y-71448826D01*
X164181250Y-71450000D01*
X163693750Y-71450000D01*
X163669858Y-71448826D01*
X163646197Y-71445316D01*
X163622993Y-71439504D01*
X163600471Y-71431446D01*
X163578847Y-71421218D01*
X163558330Y-71408921D01*
X163539117Y-71394671D01*
X163521393Y-71378607D01*
X163505329Y-71360883D01*
X163491079Y-71341670D01*
X163478782Y-71321153D01*
X163468554Y-71299529D01*
X163460496Y-71277007D01*
X163454684Y-71253803D01*
X163451174Y-71230142D01*
X163450000Y-71206250D01*
X163450000Y-70293750D01*
X163451174Y-70269858D01*
X163454684Y-70246197D01*
X163460496Y-70222993D01*
X163468554Y-70200471D01*
X163478782Y-70178847D01*
X163491079Y-70158330D01*
X163505329Y-70139117D01*
X163521393Y-70121393D01*
X163539117Y-70105329D01*
X163558330Y-70091079D01*
X163578847Y-70078782D01*
X163600471Y-70068554D01*
X163622993Y-70060496D01*
X163646197Y-70054684D01*
X163669858Y-70051174D01*
X163693750Y-70050000D01*
X164181250Y-70050000D01*
X164205142Y-70051174D01*
X164205142Y-70051174D01*
G37*
D12*
G04 #@! TD*
G04 #@! TO.P,C3,1*
G04 #@! TO.N,Net-(C3-Pad1)*
X163937500Y-70750000D03*
D11*
G04 #@! TO.N,VDD*
G04 #@! TO.C,C4*
G36*
X156267642Y-73801174D02*
X156291303Y-73804684D01*
X156314507Y-73810496D01*
X156337029Y-73818554D01*
X156358653Y-73828782D01*
X156379170Y-73841079D01*
X156398383Y-73855329D01*
X156416107Y-73871393D01*
X156432171Y-73889117D01*
X156446421Y-73908330D01*
X156458718Y-73928847D01*
X156468946Y-73950471D01*
X156477004Y-73972993D01*
X156482816Y-73996197D01*
X156486326Y-74019858D01*
X156487500Y-74043750D01*
X156487500Y-74956250D01*
X156486326Y-74980142D01*
X156482816Y-75003803D01*
X156477004Y-75027007D01*
X156468946Y-75049529D01*
X156458718Y-75071153D01*
X156446421Y-75091670D01*
X156432171Y-75110883D01*
X156416107Y-75128607D01*
X156398383Y-75144671D01*
X156379170Y-75158921D01*
X156358653Y-75171218D01*
X156337029Y-75181446D01*
X156314507Y-75189504D01*
X156291303Y-75195316D01*
X156267642Y-75198826D01*
X156243750Y-75200000D01*
X155756250Y-75200000D01*
X155732358Y-75198826D01*
X155708697Y-75195316D01*
X155685493Y-75189504D01*
X155662971Y-75181446D01*
X155641347Y-75171218D01*
X155620830Y-75158921D01*
X155601617Y-75144671D01*
X155583893Y-75128607D01*
X155567829Y-75110883D01*
X155553579Y-75091670D01*
X155541282Y-75071153D01*
X155531054Y-75049529D01*
X155522996Y-75027007D01*
X155517184Y-75003803D01*
X155513674Y-74980142D01*
X155512500Y-74956250D01*
X155512500Y-74043750D01*
X155513674Y-74019858D01*
X155517184Y-73996197D01*
X155522996Y-73972993D01*
X155531054Y-73950471D01*
X155541282Y-73928847D01*
X155553579Y-73908330D01*
X155567829Y-73889117D01*
X155583893Y-73871393D01*
X155601617Y-73855329D01*
X155620830Y-73841079D01*
X155641347Y-73828782D01*
X155662971Y-73818554D01*
X155685493Y-73810496D01*
X155708697Y-73804684D01*
X155732358Y-73801174D01*
X155756250Y-73800000D01*
X156243750Y-73800000D01*
X156267642Y-73801174D01*
X156267642Y-73801174D01*
G37*
D12*
G04 #@! TD*
G04 #@! TO.P,C4,1*
G04 #@! TO.N,VDD*
X156000000Y-74500000D03*
D11*
G04 #@! TO.N,GND*
G04 #@! TO.C,C4*
G36*
X158142642Y-73801174D02*
X158166303Y-73804684D01*
X158189507Y-73810496D01*
X158212029Y-73818554D01*
X158233653Y-73828782D01*
X158254170Y-73841079D01*
X158273383Y-73855329D01*
X158291107Y-73871393D01*
X158307171Y-73889117D01*
X158321421Y-73908330D01*
X158333718Y-73928847D01*
X158343946Y-73950471D01*
X158352004Y-73972993D01*
X158357816Y-73996197D01*
X158361326Y-74019858D01*
X158362500Y-74043750D01*
X158362500Y-74956250D01*
X158361326Y-74980142D01*
X158357816Y-75003803D01*
X158352004Y-75027007D01*
X158343946Y-75049529D01*
X158333718Y-75071153D01*
X158321421Y-75091670D01*
X158307171Y-75110883D01*
X158291107Y-75128607D01*
X158273383Y-75144671D01*
X158254170Y-75158921D01*
X158233653Y-75171218D01*
X158212029Y-75181446D01*
X158189507Y-75189504D01*
X158166303Y-75195316D01*
X158142642Y-75198826D01*
X158118750Y-75200000D01*
X157631250Y-75200000D01*
X157607358Y-75198826D01*
X157583697Y-75195316D01*
X157560493Y-75189504D01*
X157537971Y-75181446D01*
X157516347Y-75171218D01*
X157495830Y-75158921D01*
X157476617Y-75144671D01*
X157458893Y-75128607D01*
X157442829Y-75110883D01*
X157428579Y-75091670D01*
X157416282Y-75071153D01*
X157406054Y-75049529D01*
X157397996Y-75027007D01*
X157392184Y-75003803D01*
X157388674Y-74980142D01*
X157387500Y-74956250D01*
X157387500Y-74043750D01*
X157388674Y-74019858D01*
X157392184Y-73996197D01*
X157397996Y-73972993D01*
X157406054Y-73950471D01*
X157416282Y-73928847D01*
X157428579Y-73908330D01*
X157442829Y-73889117D01*
X157458893Y-73871393D01*
X157476617Y-73855329D01*
X157495830Y-73841079D01*
X157516347Y-73828782D01*
X157537971Y-73818554D01*
X157560493Y-73810496D01*
X157583697Y-73804684D01*
X157607358Y-73801174D01*
X157631250Y-73800000D01*
X158118750Y-73800000D01*
X158142642Y-73801174D01*
X158142642Y-73801174D01*
G37*
D12*
G04 #@! TD*
G04 #@! TO.P,C4,2*
G04 #@! TO.N,GND*
X157875000Y-74500000D03*
D11*
G04 #@! TO.N,/26MHZ*
G04 #@! TO.C,C5*
G36*
X165065142Y-78676174D02*
X165088803Y-78679684D01*
X165112007Y-78685496D01*
X165134529Y-78693554D01*
X165156153Y-78703782D01*
X165176670Y-78716079D01*
X165195883Y-78730329D01*
X165213607Y-78746393D01*
X165229671Y-78764117D01*
X165243921Y-78783330D01*
X165256218Y-78803847D01*
X165266446Y-78825471D01*
X165274504Y-78847993D01*
X165280316Y-78871197D01*
X165283826Y-78894858D01*
X165285000Y-78918750D01*
X165285000Y-79831250D01*
X165283826Y-79855142D01*
X165280316Y-79878803D01*
X165274504Y-79902007D01*
X165266446Y-79924529D01*
X165256218Y-79946153D01*
X165243921Y-79966670D01*
X165229671Y-79985883D01*
X165213607Y-80003607D01*
X165195883Y-80019671D01*
X165176670Y-80033921D01*
X165156153Y-80046218D01*
X165134529Y-80056446D01*
X165112007Y-80064504D01*
X165088803Y-80070316D01*
X165065142Y-80073826D01*
X165041250Y-80075000D01*
X164553750Y-80075000D01*
X164529858Y-80073826D01*
X164506197Y-80070316D01*
X164482993Y-80064504D01*
X164460471Y-80056446D01*
X164438847Y-80046218D01*
X164418330Y-80033921D01*
X164399117Y-80019671D01*
X164381393Y-80003607D01*
X164365329Y-79985883D01*
X164351079Y-79966670D01*
X164338782Y-79946153D01*
X164328554Y-79924529D01*
X164320496Y-79902007D01*
X164314684Y-79878803D01*
X164311174Y-79855142D01*
X164310000Y-79831250D01*
X164310000Y-78918750D01*
X164311174Y-78894858D01*
X164314684Y-78871197D01*
X164320496Y-78847993D01*
X164328554Y-78825471D01*
X164338782Y-78803847D01*
X164351079Y-78783330D01*
X164365329Y-78764117D01*
X164381393Y-78746393D01*
X164399117Y-78730329D01*
X164418330Y-78716079D01*
X164438847Y-78703782D01*
X164460471Y-78693554D01*
X164482993Y-78685496D01*
X164506197Y-78679684D01*
X164529858Y-78676174D01*
X164553750Y-78675000D01*
X165041250Y-78675000D01*
X165065142Y-78676174D01*
X165065142Y-78676174D01*
G37*
D12*
G04 #@! TD*
G04 #@! TO.P,C5,2*
G04 #@! TO.N,/26MHZ*
X164797500Y-79375000D03*
D11*
G04 #@! TO.N,Net-(C5-Pad1)*
G04 #@! TO.C,C5*
G36*
X166940142Y-78676174D02*
X166963803Y-78679684D01*
X166987007Y-78685496D01*
X167009529Y-78693554D01*
X167031153Y-78703782D01*
X167051670Y-78716079D01*
X167070883Y-78730329D01*
X167088607Y-78746393D01*
X167104671Y-78764117D01*
X167118921Y-78783330D01*
X167131218Y-78803847D01*
X167141446Y-78825471D01*
X167149504Y-78847993D01*
X167155316Y-78871197D01*
X167158826Y-78894858D01*
X167160000Y-78918750D01*
X167160000Y-79831250D01*
X167158826Y-79855142D01*
X167155316Y-79878803D01*
X167149504Y-79902007D01*
X167141446Y-79924529D01*
X167131218Y-79946153D01*
X167118921Y-79966670D01*
X167104671Y-79985883D01*
X167088607Y-80003607D01*
X167070883Y-80019671D01*
X167051670Y-80033921D01*
X167031153Y-80046218D01*
X167009529Y-80056446D01*
X166987007Y-80064504D01*
X166963803Y-80070316D01*
X166940142Y-80073826D01*
X166916250Y-80075000D01*
X166428750Y-80075000D01*
X166404858Y-80073826D01*
X166381197Y-80070316D01*
X166357993Y-80064504D01*
X166335471Y-80056446D01*
X166313847Y-80046218D01*
X166293330Y-80033921D01*
X166274117Y-80019671D01*
X166256393Y-80003607D01*
X166240329Y-79985883D01*
X166226079Y-79966670D01*
X166213782Y-79946153D01*
X166203554Y-79924529D01*
X166195496Y-79902007D01*
X166189684Y-79878803D01*
X166186174Y-79855142D01*
X166185000Y-79831250D01*
X166185000Y-78918750D01*
X166186174Y-78894858D01*
X166189684Y-78871197D01*
X166195496Y-78847993D01*
X166203554Y-78825471D01*
X166213782Y-78803847D01*
X166226079Y-78783330D01*
X166240329Y-78764117D01*
X166256393Y-78746393D01*
X166274117Y-78730329D01*
X166293330Y-78716079D01*
X166313847Y-78703782D01*
X166335471Y-78693554D01*
X166357993Y-78685496D01*
X166381197Y-78679684D01*
X166404858Y-78676174D01*
X166428750Y-78675000D01*
X166916250Y-78675000D01*
X166940142Y-78676174D01*
X166940142Y-78676174D01*
G37*
D12*
G04 #@! TD*
G04 #@! TO.P,C5,1*
G04 #@! TO.N,Net-(C5-Pad1)*
X166672500Y-79375000D03*
D11*
G04 #@! TO.N,VDD*
G04 #@! TO.C,C6*
G36*
X167575142Y-82486174D02*
X167598803Y-82489684D01*
X167622007Y-82495496D01*
X167644529Y-82503554D01*
X167666153Y-82513782D01*
X167686670Y-82526079D01*
X167705883Y-82540329D01*
X167723607Y-82556393D01*
X167739671Y-82574117D01*
X167753921Y-82593330D01*
X167766218Y-82613847D01*
X167776446Y-82635471D01*
X167784504Y-82657993D01*
X167790316Y-82681197D01*
X167793826Y-82704858D01*
X167795000Y-82728750D01*
X167795000Y-83641250D01*
X167793826Y-83665142D01*
X167790316Y-83688803D01*
X167784504Y-83712007D01*
X167776446Y-83734529D01*
X167766218Y-83756153D01*
X167753921Y-83776670D01*
X167739671Y-83795883D01*
X167723607Y-83813607D01*
X167705883Y-83829671D01*
X167686670Y-83843921D01*
X167666153Y-83856218D01*
X167644529Y-83866446D01*
X167622007Y-83874504D01*
X167598803Y-83880316D01*
X167575142Y-83883826D01*
X167551250Y-83885000D01*
X167063750Y-83885000D01*
X167039858Y-83883826D01*
X167016197Y-83880316D01*
X166992993Y-83874504D01*
X166970471Y-83866446D01*
X166948847Y-83856218D01*
X166928330Y-83843921D01*
X166909117Y-83829671D01*
X166891393Y-83813607D01*
X166875329Y-83795883D01*
X166861079Y-83776670D01*
X166848782Y-83756153D01*
X166838554Y-83734529D01*
X166830496Y-83712007D01*
X166824684Y-83688803D01*
X166821174Y-83665142D01*
X166820000Y-83641250D01*
X166820000Y-82728750D01*
X166821174Y-82704858D01*
X166824684Y-82681197D01*
X166830496Y-82657993D01*
X166838554Y-82635471D01*
X166848782Y-82613847D01*
X166861079Y-82593330D01*
X166875329Y-82574117D01*
X166891393Y-82556393D01*
X166909117Y-82540329D01*
X166928330Y-82526079D01*
X166948847Y-82513782D01*
X166970471Y-82503554D01*
X166992993Y-82495496D01*
X167016197Y-82489684D01*
X167039858Y-82486174D01*
X167063750Y-82485000D01*
X167551250Y-82485000D01*
X167575142Y-82486174D01*
X167575142Y-82486174D01*
G37*
D12*
G04 #@! TD*
G04 #@! TO.P,C6,1*
G04 #@! TO.N,VDD*
X167307500Y-83185000D03*
D11*
G04 #@! TO.N,GND*
G04 #@! TO.C,C6*
G36*
X165700142Y-82486174D02*
X165723803Y-82489684D01*
X165747007Y-82495496D01*
X165769529Y-82503554D01*
X165791153Y-82513782D01*
X165811670Y-82526079D01*
X165830883Y-82540329D01*
X165848607Y-82556393D01*
X165864671Y-82574117D01*
X165878921Y-82593330D01*
X165891218Y-82613847D01*
X165901446Y-82635471D01*
X165909504Y-82657993D01*
X165915316Y-82681197D01*
X165918826Y-82704858D01*
X165920000Y-82728750D01*
X165920000Y-83641250D01*
X165918826Y-83665142D01*
X165915316Y-83688803D01*
X165909504Y-83712007D01*
X165901446Y-83734529D01*
X165891218Y-83756153D01*
X165878921Y-83776670D01*
X165864671Y-83795883D01*
X165848607Y-83813607D01*
X165830883Y-83829671D01*
X165811670Y-83843921D01*
X165791153Y-83856218D01*
X165769529Y-83866446D01*
X165747007Y-83874504D01*
X165723803Y-83880316D01*
X165700142Y-83883826D01*
X165676250Y-83885000D01*
X165188750Y-83885000D01*
X165164858Y-83883826D01*
X165141197Y-83880316D01*
X165117993Y-83874504D01*
X165095471Y-83866446D01*
X165073847Y-83856218D01*
X165053330Y-83843921D01*
X165034117Y-83829671D01*
X165016393Y-83813607D01*
X165000329Y-83795883D01*
X164986079Y-83776670D01*
X164973782Y-83756153D01*
X164963554Y-83734529D01*
X164955496Y-83712007D01*
X164949684Y-83688803D01*
X164946174Y-83665142D01*
X164945000Y-83641250D01*
X164945000Y-82728750D01*
X164946174Y-82704858D01*
X164949684Y-82681197D01*
X164955496Y-82657993D01*
X164963554Y-82635471D01*
X164973782Y-82613847D01*
X164986079Y-82593330D01*
X165000329Y-82574117D01*
X165016393Y-82556393D01*
X165034117Y-82540329D01*
X165053330Y-82526079D01*
X165073847Y-82513782D01*
X165095471Y-82503554D01*
X165117993Y-82495496D01*
X165141197Y-82489684D01*
X165164858Y-82486174D01*
X165188750Y-82485000D01*
X165676250Y-82485000D01*
X165700142Y-82486174D01*
X165700142Y-82486174D01*
G37*
D12*
G04 #@! TD*
G04 #@! TO.P,C6,2*
G04 #@! TO.N,GND*
X165432500Y-83185000D03*
D11*
G04 #@! TO.N,Net-(C7-Pad2)*
G04 #@! TO.C,C7*
G36*
X180480142Y-80013674D02*
X180503803Y-80017184D01*
X180527007Y-80022996D01*
X180549529Y-80031054D01*
X180571153Y-80041282D01*
X180591670Y-80053579D01*
X180610883Y-80067829D01*
X180628607Y-80083893D01*
X180644671Y-80101617D01*
X180658921Y-80120830D01*
X180671218Y-80141347D01*
X180681446Y-80162971D01*
X180689504Y-80185493D01*
X180695316Y-80208697D01*
X180698826Y-80232358D01*
X180700000Y-80256250D01*
X180700000Y-80743750D01*
X180698826Y-80767642D01*
X180695316Y-80791303D01*
X180689504Y-80814507D01*
X180681446Y-80837029D01*
X180671218Y-80858653D01*
X180658921Y-80879170D01*
X180644671Y-80898383D01*
X180628607Y-80916107D01*
X180610883Y-80932171D01*
X180591670Y-80946421D01*
X180571153Y-80958718D01*
X180549529Y-80968946D01*
X180527007Y-80977004D01*
X180503803Y-80982816D01*
X180480142Y-80986326D01*
X180456250Y-80987500D01*
X179543750Y-80987500D01*
X179519858Y-80986326D01*
X179496197Y-80982816D01*
X179472993Y-80977004D01*
X179450471Y-80968946D01*
X179428847Y-80958718D01*
X179408330Y-80946421D01*
X179389117Y-80932171D01*
X179371393Y-80916107D01*
X179355329Y-80898383D01*
X179341079Y-80879170D01*
X179328782Y-80858653D01*
X179318554Y-80837029D01*
X179310496Y-80814507D01*
X179304684Y-80791303D01*
X179301174Y-80767642D01*
X179300000Y-80743750D01*
X179300000Y-80256250D01*
X179301174Y-80232358D01*
X179304684Y-80208697D01*
X179310496Y-80185493D01*
X179318554Y-80162971D01*
X179328782Y-80141347D01*
X179341079Y-80120830D01*
X179355329Y-80101617D01*
X179371393Y-80083893D01*
X179389117Y-80067829D01*
X179408330Y-80053579D01*
X179428847Y-80041282D01*
X179450471Y-80031054D01*
X179472993Y-80022996D01*
X179496197Y-80017184D01*
X179519858Y-80013674D01*
X179543750Y-80012500D01*
X180456250Y-80012500D01*
X180480142Y-80013674D01*
X180480142Y-80013674D01*
G37*
D12*
G04 #@! TD*
G04 #@! TO.P,C7,2*
G04 #@! TO.N,Net-(C7-Pad2)*
X180000000Y-80500000D03*
D11*
G04 #@! TO.N,GND*
G04 #@! TO.C,C7*
G36*
X180480142Y-78138674D02*
X180503803Y-78142184D01*
X180527007Y-78147996D01*
X180549529Y-78156054D01*
X180571153Y-78166282D01*
X180591670Y-78178579D01*
X180610883Y-78192829D01*
X180628607Y-78208893D01*
X180644671Y-78226617D01*
X180658921Y-78245830D01*
X180671218Y-78266347D01*
X180681446Y-78287971D01*
X180689504Y-78310493D01*
X180695316Y-78333697D01*
X180698826Y-78357358D01*
X180700000Y-78381250D01*
X180700000Y-78868750D01*
X180698826Y-78892642D01*
X180695316Y-78916303D01*
X180689504Y-78939507D01*
X180681446Y-78962029D01*
X180671218Y-78983653D01*
X180658921Y-79004170D01*
X180644671Y-79023383D01*
X180628607Y-79041107D01*
X180610883Y-79057171D01*
X180591670Y-79071421D01*
X180571153Y-79083718D01*
X180549529Y-79093946D01*
X180527007Y-79102004D01*
X180503803Y-79107816D01*
X180480142Y-79111326D01*
X180456250Y-79112500D01*
X179543750Y-79112500D01*
X179519858Y-79111326D01*
X179496197Y-79107816D01*
X179472993Y-79102004D01*
X179450471Y-79093946D01*
X179428847Y-79083718D01*
X179408330Y-79071421D01*
X179389117Y-79057171D01*
X179371393Y-79041107D01*
X179355329Y-79023383D01*
X179341079Y-79004170D01*
X179328782Y-78983653D01*
X179318554Y-78962029D01*
X179310496Y-78939507D01*
X179304684Y-78916303D01*
X179301174Y-78892642D01*
X179300000Y-78868750D01*
X179300000Y-78381250D01*
X179301174Y-78357358D01*
X179304684Y-78333697D01*
X179310496Y-78310493D01*
X179318554Y-78287971D01*
X179328782Y-78266347D01*
X179341079Y-78245830D01*
X179355329Y-78226617D01*
X179371393Y-78208893D01*
X179389117Y-78192829D01*
X179408330Y-78178579D01*
X179428847Y-78166282D01*
X179450471Y-78156054D01*
X179472993Y-78147996D01*
X179496197Y-78142184D01*
X179519858Y-78138674D01*
X179543750Y-78137500D01*
X180456250Y-78137500D01*
X180480142Y-78138674D01*
X180480142Y-78138674D01*
G37*
D12*
G04 #@! TD*
G04 #@! TO.P,C7,1*
G04 #@! TO.N,GND*
X180000000Y-78625000D03*
D11*
G04 #@! TO.N,GND*
G04 #@! TO.C,C8*
G36*
X183980142Y-78138674D02*
X184003803Y-78142184D01*
X184027007Y-78147996D01*
X184049529Y-78156054D01*
X184071153Y-78166282D01*
X184091670Y-78178579D01*
X184110883Y-78192829D01*
X184128607Y-78208893D01*
X184144671Y-78226617D01*
X184158921Y-78245830D01*
X184171218Y-78266347D01*
X184181446Y-78287971D01*
X184189504Y-78310493D01*
X184195316Y-78333697D01*
X184198826Y-78357358D01*
X184200000Y-78381250D01*
X184200000Y-78868750D01*
X184198826Y-78892642D01*
X184195316Y-78916303D01*
X184189504Y-78939507D01*
X184181446Y-78962029D01*
X184171218Y-78983653D01*
X184158921Y-79004170D01*
X184144671Y-79023383D01*
X184128607Y-79041107D01*
X184110883Y-79057171D01*
X184091670Y-79071421D01*
X184071153Y-79083718D01*
X184049529Y-79093946D01*
X184027007Y-79102004D01*
X184003803Y-79107816D01*
X183980142Y-79111326D01*
X183956250Y-79112500D01*
X183043750Y-79112500D01*
X183019858Y-79111326D01*
X182996197Y-79107816D01*
X182972993Y-79102004D01*
X182950471Y-79093946D01*
X182928847Y-79083718D01*
X182908330Y-79071421D01*
X182889117Y-79057171D01*
X182871393Y-79041107D01*
X182855329Y-79023383D01*
X182841079Y-79004170D01*
X182828782Y-78983653D01*
X182818554Y-78962029D01*
X182810496Y-78939507D01*
X182804684Y-78916303D01*
X182801174Y-78892642D01*
X182800000Y-78868750D01*
X182800000Y-78381250D01*
X182801174Y-78357358D01*
X182804684Y-78333697D01*
X182810496Y-78310493D01*
X182818554Y-78287971D01*
X182828782Y-78266347D01*
X182841079Y-78245830D01*
X182855329Y-78226617D01*
X182871393Y-78208893D01*
X182889117Y-78192829D01*
X182908330Y-78178579D01*
X182928847Y-78166282D01*
X182950471Y-78156054D01*
X182972993Y-78147996D01*
X182996197Y-78142184D01*
X183019858Y-78138674D01*
X183043750Y-78137500D01*
X183956250Y-78137500D01*
X183980142Y-78138674D01*
X183980142Y-78138674D01*
G37*
D12*
G04 #@! TD*
G04 #@! TO.P,C8,1*
G04 #@! TO.N,GND*
X183500000Y-78625000D03*
D11*
G04 #@! TO.N,Net-(AE1-Pad1)*
G04 #@! TO.C,C8*
G36*
X183980142Y-80013674D02*
X184003803Y-80017184D01*
X184027007Y-80022996D01*
X184049529Y-80031054D01*
X184071153Y-80041282D01*
X184091670Y-80053579D01*
X184110883Y-80067829D01*
X184128607Y-80083893D01*
X184144671Y-80101617D01*
X184158921Y-80120830D01*
X184171218Y-80141347D01*
X184181446Y-80162971D01*
X184189504Y-80185493D01*
X184195316Y-80208697D01*
X184198826Y-80232358D01*
X184200000Y-80256250D01*
X184200000Y-80743750D01*
X184198826Y-80767642D01*
X184195316Y-80791303D01*
X184189504Y-80814507D01*
X184181446Y-80837029D01*
X184171218Y-80858653D01*
X184158921Y-80879170D01*
X184144671Y-80898383D01*
X184128607Y-80916107D01*
X184110883Y-80932171D01*
X184091670Y-80946421D01*
X184071153Y-80958718D01*
X184049529Y-80968946D01*
X184027007Y-80977004D01*
X184003803Y-80982816D01*
X183980142Y-80986326D01*
X183956250Y-80987500D01*
X183043750Y-80987500D01*
X183019858Y-80986326D01*
X182996197Y-80982816D01*
X182972993Y-80977004D01*
X182950471Y-80968946D01*
X182928847Y-80958718D01*
X182908330Y-80946421D01*
X182889117Y-80932171D01*
X182871393Y-80916107D01*
X182855329Y-80898383D01*
X182841079Y-80879170D01*
X182828782Y-80858653D01*
X182818554Y-80837029D01*
X182810496Y-80814507D01*
X182804684Y-80791303D01*
X182801174Y-80767642D01*
X182800000Y-80743750D01*
X182800000Y-80256250D01*
X182801174Y-80232358D01*
X182804684Y-80208697D01*
X182810496Y-80185493D01*
X182818554Y-80162971D01*
X182828782Y-80141347D01*
X182841079Y-80120830D01*
X182855329Y-80101617D01*
X182871393Y-80083893D01*
X182889117Y-80067829D01*
X182908330Y-80053579D01*
X182928847Y-80041282D01*
X182950471Y-80031054D01*
X182972993Y-80022996D01*
X182996197Y-80017184D01*
X183019858Y-80013674D01*
X183043750Y-80012500D01*
X183956250Y-80012500D01*
X183980142Y-80013674D01*
X183980142Y-80013674D01*
G37*
D12*
G04 #@! TD*
G04 #@! TO.P,C8,2*
G04 #@! TO.N,Net-(AE1-Pad1)*
X183500000Y-80500000D03*
D13*
G04 #@! TO.P,TH1,1*
G04 #@! TO.N,/TEMP_PWR*
X181500000Y-75000000D03*
G04 #@! TO.P,TH1,2*
G04 #@! TO.N,/TEMP_SNS*
X184000000Y-75000000D03*
G04 #@! TD*
D11*
G04 #@! TO.N,GND*
G04 #@! TO.C,J2*
G36*
X159774504Y-78151204D02*
X159798773Y-78154804D01*
X159822571Y-78160765D01*
X159845671Y-78169030D01*
X159867849Y-78179520D01*
X159888893Y-78192133D01*
X159908598Y-78206747D01*
X159926777Y-78223223D01*
X159943253Y-78241402D01*
X159957867Y-78261107D01*
X159970480Y-78282151D01*
X159980970Y-78304329D01*
X159989235Y-78327429D01*
X159995196Y-78351227D01*
X159998796Y-78375496D01*
X160000000Y-78400000D01*
X160000000Y-79600000D01*
X159998796Y-79624504D01*
X159995196Y-79648773D01*
X159989235Y-79672571D01*
X159980970Y-79695671D01*
X159970480Y-79717849D01*
X159957867Y-79738893D01*
X159943253Y-79758598D01*
X159926777Y-79776777D01*
X159908598Y-79793253D01*
X159888893Y-79807867D01*
X159867849Y-79820480D01*
X159845671Y-79830970D01*
X159822571Y-79839235D01*
X159798773Y-79845196D01*
X159774504Y-79848796D01*
X159750000Y-79850000D01*
X158250000Y-79850000D01*
X158225496Y-79848796D01*
X158201227Y-79845196D01*
X158177429Y-79839235D01*
X158154329Y-79830970D01*
X158132151Y-79820480D01*
X158111107Y-79807867D01*
X158091402Y-79793253D01*
X158073223Y-79776777D01*
X158056747Y-79758598D01*
X158042133Y-79738893D01*
X158029520Y-79717849D01*
X158019030Y-79695671D01*
X158010765Y-79672571D01*
X158004804Y-79648773D01*
X158001204Y-79624504D01*
X158000000Y-79600000D01*
X158000000Y-78400000D01*
X158001204Y-78375496D01*
X158004804Y-78351227D01*
X158010765Y-78327429D01*
X158019030Y-78304329D01*
X158029520Y-78282151D01*
X158042133Y-78261107D01*
X158056747Y-78241402D01*
X158073223Y-78223223D01*
X158091402Y-78206747D01*
X158111107Y-78192133D01*
X158132151Y-78179520D01*
X158154329Y-78169030D01*
X158177429Y-78160765D01*
X158201227Y-78154804D01*
X158225496Y-78151204D01*
X158250000Y-78150000D01*
X159750000Y-78150000D01*
X159774504Y-78151204D01*
X159774504Y-78151204D01*
G37*
D14*
G04 #@! TD*
G04 #@! TO.P,J2,1*
G04 #@! TO.N,GND*
X159000000Y-79000000D03*
D15*
G04 #@! TO.P,J2,2*
G04 #@! TO.N,VDD*
X159000000Y-81500000D03*
G04 #@! TD*
D16*
G04 #@! TO.P,J1,1*
G04 #@! TO.N,VDD*
X153000000Y-71500000D03*
G04 #@! TD*
G04 #@! TO.P,AE1,1*
G04 #@! TO.N,Net-(AE1-Pad1)*
X187000000Y-83000000D03*
G04 #@! TD*
G04 #@! TO.P,X1,1*
G04 #@! TO.N,/SWDIO*
X181920000Y-71000000D03*
D17*
G04 #@! TO.P,X1,2*
G04 #@! TO.N,GND*
X184460000Y-71000000D03*
G04 #@! TO.P,X1,3*
G04 #@! TO.N,/SWCLK*
X187000000Y-71000000D03*
G04 #@! TD*
D11*
G04 #@! TO.N,VDD*
G04 #@! TO.C,L1*
G36*
X174590142Y-78676174D02*
X174613803Y-78679684D01*
X174637007Y-78685496D01*
X174659529Y-78693554D01*
X174681153Y-78703782D01*
X174701670Y-78716079D01*
X174720883Y-78730329D01*
X174738607Y-78746393D01*
X174754671Y-78764117D01*
X174768921Y-78783330D01*
X174781218Y-78803847D01*
X174791446Y-78825471D01*
X174799504Y-78847993D01*
X174805316Y-78871197D01*
X174808826Y-78894858D01*
X174810000Y-78918750D01*
X174810000Y-79831250D01*
X174808826Y-79855142D01*
X174805316Y-79878803D01*
X174799504Y-79902007D01*
X174791446Y-79924529D01*
X174781218Y-79946153D01*
X174768921Y-79966670D01*
X174754671Y-79985883D01*
X174738607Y-80003607D01*
X174720883Y-80019671D01*
X174701670Y-80033921D01*
X174681153Y-80046218D01*
X174659529Y-80056446D01*
X174637007Y-80064504D01*
X174613803Y-80070316D01*
X174590142Y-80073826D01*
X174566250Y-80075000D01*
X174078750Y-80075000D01*
X174054858Y-80073826D01*
X174031197Y-80070316D01*
X174007993Y-80064504D01*
X173985471Y-80056446D01*
X173963847Y-80046218D01*
X173943330Y-80033921D01*
X173924117Y-80019671D01*
X173906393Y-80003607D01*
X173890329Y-79985883D01*
X173876079Y-79966670D01*
X173863782Y-79946153D01*
X173853554Y-79924529D01*
X173845496Y-79902007D01*
X173839684Y-79878803D01*
X173836174Y-79855142D01*
X173835000Y-79831250D01*
X173835000Y-78918750D01*
X173836174Y-78894858D01*
X173839684Y-78871197D01*
X173845496Y-78847993D01*
X173853554Y-78825471D01*
X173863782Y-78803847D01*
X173876079Y-78783330D01*
X173890329Y-78764117D01*
X173906393Y-78746393D01*
X173924117Y-78730329D01*
X173943330Y-78716079D01*
X173963847Y-78703782D01*
X173985471Y-78693554D01*
X174007993Y-78685496D01*
X174031197Y-78679684D01*
X174054858Y-78676174D01*
X174078750Y-78675000D01*
X174566250Y-78675000D01*
X174590142Y-78676174D01*
X174590142Y-78676174D01*
G37*
D12*
G04 #@! TD*
G04 #@! TO.P,L1,1*
G04 #@! TO.N,VDD*
X174322500Y-79375000D03*
D11*
G04 #@! TO.N,Net-(C1-Pad2)*
G04 #@! TO.C,L1*
G36*
X176465142Y-78676174D02*
X176488803Y-78679684D01*
X176512007Y-78685496D01*
X176534529Y-78693554D01*
X176556153Y-78703782D01*
X176576670Y-78716079D01*
X176595883Y-78730329D01*
X176613607Y-78746393D01*
X176629671Y-78764117D01*
X176643921Y-78783330D01*
X176656218Y-78803847D01*
X176666446Y-78825471D01*
X176674504Y-78847993D01*
X176680316Y-78871197D01*
X176683826Y-78894858D01*
X176685000Y-78918750D01*
X176685000Y-79831250D01*
X176683826Y-79855142D01*
X176680316Y-79878803D01*
X176674504Y-79902007D01*
X176666446Y-79924529D01*
X176656218Y-79946153D01*
X176643921Y-79966670D01*
X176629671Y-79985883D01*
X176613607Y-80003607D01*
X176595883Y-80019671D01*
X176576670Y-80033921D01*
X176556153Y-80046218D01*
X176534529Y-80056446D01*
X176512007Y-80064504D01*
X176488803Y-80070316D01*
X176465142Y-80073826D01*
X176441250Y-80075000D01*
X175953750Y-80075000D01*
X175929858Y-80073826D01*
X175906197Y-80070316D01*
X175882993Y-80064504D01*
X175860471Y-80056446D01*
X175838847Y-80046218D01*
X175818330Y-80033921D01*
X175799117Y-80019671D01*
X175781393Y-80003607D01*
X175765329Y-79985883D01*
X175751079Y-79966670D01*
X175738782Y-79946153D01*
X175728554Y-79924529D01*
X175720496Y-79902007D01*
X175714684Y-79878803D01*
X175711174Y-79855142D01*
X175710000Y-79831250D01*
X175710000Y-78918750D01*
X175711174Y-78894858D01*
X175714684Y-78871197D01*
X175720496Y-78847993D01*
X175728554Y-78825471D01*
X175738782Y-78803847D01*
X175751079Y-78783330D01*
X175765329Y-78764117D01*
X175781393Y-78746393D01*
X175799117Y-78730329D01*
X175818330Y-78716079D01*
X175838847Y-78703782D01*
X175860471Y-78693554D01*
X175882993Y-78685496D01*
X175906197Y-78679684D01*
X175929858Y-78676174D01*
X175953750Y-78675000D01*
X176441250Y-78675000D01*
X176465142Y-78676174D01*
X176465142Y-78676174D01*
G37*
D12*
G04 #@! TD*
G04 #@! TO.P,L1,2*
G04 #@! TO.N,Net-(C1-Pad2)*
X176197500Y-79375000D03*
D11*
G04 #@! TO.N,Net-(C7-Pad2)*
G04 #@! TO.C,L2*
G36*
X180142642Y-82301174D02*
X180166303Y-82304684D01*
X180189507Y-82310496D01*
X180212029Y-82318554D01*
X180233653Y-82328782D01*
X180254170Y-82341079D01*
X180273383Y-82355329D01*
X180291107Y-82371393D01*
X180307171Y-82389117D01*
X180321421Y-82408330D01*
X180333718Y-82428847D01*
X180343946Y-82450471D01*
X180352004Y-82472993D01*
X180357816Y-82496197D01*
X180361326Y-82519858D01*
X180362500Y-82543750D01*
X180362500Y-83456250D01*
X180361326Y-83480142D01*
X180357816Y-83503803D01*
X180352004Y-83527007D01*
X180343946Y-83549529D01*
X180333718Y-83571153D01*
X180321421Y-83591670D01*
X180307171Y-83610883D01*
X180291107Y-83628607D01*
X180273383Y-83644671D01*
X180254170Y-83658921D01*
X180233653Y-83671218D01*
X180212029Y-83681446D01*
X180189507Y-83689504D01*
X180166303Y-83695316D01*
X180142642Y-83698826D01*
X180118750Y-83700000D01*
X179631250Y-83700000D01*
X179607358Y-83698826D01*
X179583697Y-83695316D01*
X179560493Y-83689504D01*
X179537971Y-83681446D01*
X179516347Y-83671218D01*
X179495830Y-83658921D01*
X179476617Y-83644671D01*
X179458893Y-83628607D01*
X179442829Y-83610883D01*
X179428579Y-83591670D01*
X179416282Y-83571153D01*
X179406054Y-83549529D01*
X179397996Y-83527007D01*
X179392184Y-83503803D01*
X179388674Y-83480142D01*
X179387500Y-83456250D01*
X179387500Y-82543750D01*
X179388674Y-82519858D01*
X179392184Y-82496197D01*
X179397996Y-82472993D01*
X179406054Y-82450471D01*
X179416282Y-82428847D01*
X179428579Y-82408330D01*
X179442829Y-82389117D01*
X179458893Y-82371393D01*
X179476617Y-82355329D01*
X179495830Y-82341079D01*
X179516347Y-82328782D01*
X179537971Y-82318554D01*
X179560493Y-82310496D01*
X179583697Y-82304684D01*
X179607358Y-82301174D01*
X179631250Y-82300000D01*
X180118750Y-82300000D01*
X180142642Y-82301174D01*
X180142642Y-82301174D01*
G37*
D12*
G04 #@! TD*
G04 #@! TO.P,L2,2*
G04 #@! TO.N,Net-(C7-Pad2)*
X179875000Y-83000000D03*
D11*
G04 #@! TO.N,Net-(C1-Pad1)*
G04 #@! TO.C,L2*
G36*
X178267642Y-82301174D02*
X178291303Y-82304684D01*
X178314507Y-82310496D01*
X178337029Y-82318554D01*
X178358653Y-82328782D01*
X178379170Y-82341079D01*
X178398383Y-82355329D01*
X178416107Y-82371393D01*
X178432171Y-82389117D01*
X178446421Y-82408330D01*
X178458718Y-82428847D01*
X178468946Y-82450471D01*
X178477004Y-82472993D01*
X178482816Y-82496197D01*
X178486326Y-82519858D01*
X178487500Y-82543750D01*
X178487500Y-83456250D01*
X178486326Y-83480142D01*
X178482816Y-83503803D01*
X178477004Y-83527007D01*
X178468946Y-83549529D01*
X178458718Y-83571153D01*
X178446421Y-83591670D01*
X178432171Y-83610883D01*
X178416107Y-83628607D01*
X178398383Y-83644671D01*
X178379170Y-83658921D01*
X178358653Y-83671218D01*
X178337029Y-83681446D01*
X178314507Y-83689504D01*
X178291303Y-83695316D01*
X178267642Y-83698826D01*
X178243750Y-83700000D01*
X177756250Y-83700000D01*
X177732358Y-83698826D01*
X177708697Y-83695316D01*
X177685493Y-83689504D01*
X177662971Y-83681446D01*
X177641347Y-83671218D01*
X177620830Y-83658921D01*
X177601617Y-83644671D01*
X177583893Y-83628607D01*
X177567829Y-83610883D01*
X177553579Y-83591670D01*
X177541282Y-83571153D01*
X177531054Y-83549529D01*
X177522996Y-83527007D01*
X177517184Y-83503803D01*
X177513674Y-83480142D01*
X177512500Y-83456250D01*
X177512500Y-82543750D01*
X177513674Y-82519858D01*
X177517184Y-82496197D01*
X177522996Y-82472993D01*
X177531054Y-82450471D01*
X177541282Y-82428847D01*
X177553579Y-82408330D01*
X177567829Y-82389117D01*
X177583893Y-82371393D01*
X177601617Y-82355329D01*
X177620830Y-82341079D01*
X177641347Y-82328782D01*
X177662971Y-82318554D01*
X177685493Y-82310496D01*
X177708697Y-82304684D01*
X177732358Y-82301174D01*
X177756250Y-82300000D01*
X178243750Y-82300000D01*
X178267642Y-82301174D01*
X178267642Y-82301174D01*
G37*
D12*
G04 #@! TD*
G04 #@! TO.P,L2,1*
G04 #@! TO.N,Net-(C1-Pad1)*
X178000000Y-83000000D03*
D11*
G04 #@! TO.N,Net-(C7-Pad2)*
G04 #@! TO.C,L3*
G36*
X182267642Y-82301174D02*
X182291303Y-82304684D01*
X182314507Y-82310496D01*
X182337029Y-82318554D01*
X182358653Y-82328782D01*
X182379170Y-82341079D01*
X182398383Y-82355329D01*
X182416107Y-82371393D01*
X182432171Y-82389117D01*
X182446421Y-82408330D01*
X182458718Y-82428847D01*
X182468946Y-82450471D01*
X182477004Y-82472993D01*
X182482816Y-82496197D01*
X182486326Y-82519858D01*
X182487500Y-82543750D01*
X182487500Y-83456250D01*
X182486326Y-83480142D01*
X182482816Y-83503803D01*
X182477004Y-83527007D01*
X182468946Y-83549529D01*
X182458718Y-83571153D01*
X182446421Y-83591670D01*
X182432171Y-83610883D01*
X182416107Y-83628607D01*
X182398383Y-83644671D01*
X182379170Y-83658921D01*
X182358653Y-83671218D01*
X182337029Y-83681446D01*
X182314507Y-83689504D01*
X182291303Y-83695316D01*
X182267642Y-83698826D01*
X182243750Y-83700000D01*
X181756250Y-83700000D01*
X181732358Y-83698826D01*
X181708697Y-83695316D01*
X181685493Y-83689504D01*
X181662971Y-83681446D01*
X181641347Y-83671218D01*
X181620830Y-83658921D01*
X181601617Y-83644671D01*
X181583893Y-83628607D01*
X181567829Y-83610883D01*
X181553579Y-83591670D01*
X181541282Y-83571153D01*
X181531054Y-83549529D01*
X181522996Y-83527007D01*
X181517184Y-83503803D01*
X181513674Y-83480142D01*
X181512500Y-83456250D01*
X181512500Y-82543750D01*
X181513674Y-82519858D01*
X181517184Y-82496197D01*
X181522996Y-82472993D01*
X181531054Y-82450471D01*
X181541282Y-82428847D01*
X181553579Y-82408330D01*
X181567829Y-82389117D01*
X181583893Y-82371393D01*
X181601617Y-82355329D01*
X181620830Y-82341079D01*
X181641347Y-82328782D01*
X181662971Y-82318554D01*
X181685493Y-82310496D01*
X181708697Y-82304684D01*
X181732358Y-82301174D01*
X181756250Y-82300000D01*
X182243750Y-82300000D01*
X182267642Y-82301174D01*
X182267642Y-82301174D01*
G37*
D12*
G04 #@! TD*
G04 #@! TO.P,L3,1*
G04 #@! TO.N,Net-(C7-Pad2)*
X182000000Y-83000000D03*
D11*
G04 #@! TO.N,Net-(AE1-Pad1)*
G04 #@! TO.C,L3*
G36*
X184142642Y-82301174D02*
X184166303Y-82304684D01*
X184189507Y-82310496D01*
X184212029Y-82318554D01*
X184233653Y-82328782D01*
X184254170Y-82341079D01*
X184273383Y-82355329D01*
X184291107Y-82371393D01*
X184307171Y-82389117D01*
X184321421Y-82408330D01*
X184333718Y-82428847D01*
X184343946Y-82450471D01*
X184352004Y-82472993D01*
X184357816Y-82496197D01*
X184361326Y-82519858D01*
X184362500Y-82543750D01*
X184362500Y-83456250D01*
X184361326Y-83480142D01*
X184357816Y-83503803D01*
X184352004Y-83527007D01*
X184343946Y-83549529D01*
X184333718Y-83571153D01*
X184321421Y-83591670D01*
X184307171Y-83610883D01*
X184291107Y-83628607D01*
X184273383Y-83644671D01*
X184254170Y-83658921D01*
X184233653Y-83671218D01*
X184212029Y-83681446D01*
X184189507Y-83689504D01*
X184166303Y-83695316D01*
X184142642Y-83698826D01*
X184118750Y-83700000D01*
X183631250Y-83700000D01*
X183607358Y-83698826D01*
X183583697Y-83695316D01*
X183560493Y-83689504D01*
X183537971Y-83681446D01*
X183516347Y-83671218D01*
X183495830Y-83658921D01*
X183476617Y-83644671D01*
X183458893Y-83628607D01*
X183442829Y-83610883D01*
X183428579Y-83591670D01*
X183416282Y-83571153D01*
X183406054Y-83549529D01*
X183397996Y-83527007D01*
X183392184Y-83503803D01*
X183388674Y-83480142D01*
X183387500Y-83456250D01*
X183387500Y-82543750D01*
X183388674Y-82519858D01*
X183392184Y-82496197D01*
X183397996Y-82472993D01*
X183406054Y-82450471D01*
X183416282Y-82428847D01*
X183428579Y-82408330D01*
X183442829Y-82389117D01*
X183458893Y-82371393D01*
X183476617Y-82355329D01*
X183495830Y-82341079D01*
X183516347Y-82328782D01*
X183537971Y-82318554D01*
X183560493Y-82310496D01*
X183583697Y-82304684D01*
X183607358Y-82301174D01*
X183631250Y-82300000D01*
X184118750Y-82300000D01*
X184142642Y-82301174D01*
X184142642Y-82301174D01*
G37*
D12*
G04 #@! TD*
G04 #@! TO.P,L3,2*
G04 #@! TO.N,Net-(AE1-Pad1)*
X183875000Y-83000000D03*
D11*
G04 #@! TO.N,Net-(D1-Pad1)*
G04 #@! TO.C,D1*
G36*
X188205142Y-76301174D02*
X188228803Y-76304684D01*
X188252007Y-76310496D01*
X188274529Y-76318554D01*
X188296153Y-76328782D01*
X188316670Y-76341079D01*
X188335883Y-76355329D01*
X188353607Y-76371393D01*
X188369671Y-76389117D01*
X188383921Y-76408330D01*
X188396218Y-76428847D01*
X188406446Y-76450471D01*
X188414504Y-76472993D01*
X188420316Y-76496197D01*
X188423826Y-76519858D01*
X188425000Y-76543750D01*
X188425000Y-77456250D01*
X188423826Y-77480142D01*
X188420316Y-77503803D01*
X188414504Y-77527007D01*
X188406446Y-77549529D01*
X188396218Y-77571153D01*
X188383921Y-77591670D01*
X188369671Y-77610883D01*
X188353607Y-77628607D01*
X188335883Y-77644671D01*
X188316670Y-77658921D01*
X188296153Y-77671218D01*
X188274529Y-77681446D01*
X188252007Y-77689504D01*
X188228803Y-77695316D01*
X188205142Y-77698826D01*
X188181250Y-77700000D01*
X187693750Y-77700000D01*
X187669858Y-77698826D01*
X187646197Y-77695316D01*
X187622993Y-77689504D01*
X187600471Y-77681446D01*
X187578847Y-77671218D01*
X187558330Y-77658921D01*
X187539117Y-77644671D01*
X187521393Y-77628607D01*
X187505329Y-77610883D01*
X187491079Y-77591670D01*
X187478782Y-77571153D01*
X187468554Y-77549529D01*
X187460496Y-77527007D01*
X187454684Y-77503803D01*
X187451174Y-77480142D01*
X187450000Y-77456250D01*
X187450000Y-76543750D01*
X187451174Y-76519858D01*
X187454684Y-76496197D01*
X187460496Y-76472993D01*
X187468554Y-76450471D01*
X187478782Y-76428847D01*
X187491079Y-76408330D01*
X187505329Y-76389117D01*
X187521393Y-76371393D01*
X187539117Y-76355329D01*
X187558330Y-76341079D01*
X187578847Y-76328782D01*
X187600471Y-76318554D01*
X187622993Y-76310496D01*
X187646197Y-76304684D01*
X187669858Y-76301174D01*
X187693750Y-76300000D01*
X188181250Y-76300000D01*
X188205142Y-76301174D01*
X188205142Y-76301174D01*
G37*
D12*
G04 #@! TD*
G04 #@! TO.P,D1,1*
G04 #@! TO.N,Net-(D1-Pad1)*
X187937500Y-77000000D03*
D11*
G04 #@! TO.N,/LED*
G04 #@! TO.C,D1*
G36*
X186330142Y-76301174D02*
X186353803Y-76304684D01*
X186377007Y-76310496D01*
X186399529Y-76318554D01*
X186421153Y-76328782D01*
X186441670Y-76341079D01*
X186460883Y-76355329D01*
X186478607Y-76371393D01*
X186494671Y-76389117D01*
X186508921Y-76408330D01*
X186521218Y-76428847D01*
X186531446Y-76450471D01*
X186539504Y-76472993D01*
X186545316Y-76496197D01*
X186548826Y-76519858D01*
X186550000Y-76543750D01*
X186550000Y-77456250D01*
X186548826Y-77480142D01*
X186545316Y-77503803D01*
X186539504Y-77527007D01*
X186531446Y-77549529D01*
X186521218Y-77571153D01*
X186508921Y-77591670D01*
X186494671Y-77610883D01*
X186478607Y-77628607D01*
X186460883Y-77644671D01*
X186441670Y-77658921D01*
X186421153Y-77671218D01*
X186399529Y-77681446D01*
X186377007Y-77689504D01*
X186353803Y-77695316D01*
X186330142Y-77698826D01*
X186306250Y-77700000D01*
X185818750Y-77700000D01*
X185794858Y-77698826D01*
X185771197Y-77695316D01*
X185747993Y-77689504D01*
X185725471Y-77681446D01*
X185703847Y-77671218D01*
X185683330Y-77658921D01*
X185664117Y-77644671D01*
X185646393Y-77628607D01*
X185630329Y-77610883D01*
X185616079Y-77591670D01*
X185603782Y-77571153D01*
X185593554Y-77549529D01*
X185585496Y-77527007D01*
X185579684Y-77503803D01*
X185576174Y-77480142D01*
X185575000Y-77456250D01*
X185575000Y-76543750D01*
X185576174Y-76519858D01*
X185579684Y-76496197D01*
X185585496Y-76472993D01*
X185593554Y-76450471D01*
X185603782Y-76428847D01*
X185616079Y-76408330D01*
X185630329Y-76389117D01*
X185646393Y-76371393D01*
X185664117Y-76355329D01*
X185683330Y-76341079D01*
X185703847Y-76328782D01*
X185725471Y-76318554D01*
X185747993Y-76310496D01*
X185771197Y-76304684D01*
X185794858Y-76301174D01*
X185818750Y-76300000D01*
X186306250Y-76300000D01*
X186330142Y-76301174D01*
X186330142Y-76301174D01*
G37*
D12*
G04 #@! TD*
G04 #@! TO.P,D1,2*
G04 #@! TO.N,/LED*
X186062500Y-77000000D03*
D18*
G04 #@! TO.P,X2,1*
G04 #@! TO.N,/OSC_EN*
X156150000Y-72150000D03*
G04 #@! TO.P,X2,2*
G04 #@! TO.N,GND*
X157850000Y-72150000D03*
G04 #@! TO.P,X2,3*
G04 #@! TO.N,/26MHZ*
X157850000Y-70850000D03*
G04 #@! TO.P,X2,4*
G04 #@! TO.N,VDD*
X156150000Y-70850000D03*
G04 #@! TD*
D19*
G04 #@! TO.P,U2,1*
G04 #@! TO.N,Net-(C5-Pad1)*
X171130000Y-79335000D03*
G04 #@! TO.P,U2,2*
G04 #@! TO.N,GND*
X170180000Y-79335000D03*
G04 #@! TO.P,U2,3*
G04 #@! TO.N,/RF_DATA*
X169230000Y-79335000D03*
G04 #@! TO.P,U2,4*
G04 #@! TO.N,/RF_CLK*
X169230000Y-81955000D03*
G04 #@! TO.P,U2,5*
G04 #@! TO.N,Net-(C1-Pad2)*
X170180000Y-81955000D03*
G04 #@! TO.P,U2,6*
G04 #@! TO.N,VDD*
X171130000Y-81955000D03*
G04 #@! TD*
D11*
G04 #@! TO.N,Net-(D1-Pad1)*
G04 #@! TO.C,R2*
G36*
X188205142Y-78801174D02*
X188228803Y-78804684D01*
X188252007Y-78810496D01*
X188274529Y-78818554D01*
X188296153Y-78828782D01*
X188316670Y-78841079D01*
X188335883Y-78855329D01*
X188353607Y-78871393D01*
X188369671Y-78889117D01*
X188383921Y-78908330D01*
X188396218Y-78928847D01*
X188406446Y-78950471D01*
X188414504Y-78972993D01*
X188420316Y-78996197D01*
X188423826Y-79019858D01*
X188425000Y-79043750D01*
X188425000Y-79956250D01*
X188423826Y-79980142D01*
X188420316Y-80003803D01*
X188414504Y-80027007D01*
X188406446Y-80049529D01*
X188396218Y-80071153D01*
X188383921Y-80091670D01*
X188369671Y-80110883D01*
X188353607Y-80128607D01*
X188335883Y-80144671D01*
X188316670Y-80158921D01*
X188296153Y-80171218D01*
X188274529Y-80181446D01*
X188252007Y-80189504D01*
X188228803Y-80195316D01*
X188205142Y-80198826D01*
X188181250Y-80200000D01*
X187693750Y-80200000D01*
X187669858Y-80198826D01*
X187646197Y-80195316D01*
X187622993Y-80189504D01*
X187600471Y-80181446D01*
X187578847Y-80171218D01*
X187558330Y-80158921D01*
X187539117Y-80144671D01*
X187521393Y-80128607D01*
X187505329Y-80110883D01*
X187491079Y-80091670D01*
X187478782Y-80071153D01*
X187468554Y-80049529D01*
X187460496Y-80027007D01*
X187454684Y-80003803D01*
X187451174Y-79980142D01*
X187450000Y-79956250D01*
X187450000Y-79043750D01*
X187451174Y-79019858D01*
X187454684Y-78996197D01*
X187460496Y-78972993D01*
X187468554Y-78950471D01*
X187478782Y-78928847D01*
X187491079Y-78908330D01*
X187505329Y-78889117D01*
X187521393Y-78871393D01*
X187539117Y-78855329D01*
X187558330Y-78841079D01*
X187578847Y-78828782D01*
X187600471Y-78818554D01*
X187622993Y-78810496D01*
X187646197Y-78804684D01*
X187669858Y-78801174D01*
X187693750Y-78800000D01*
X188181250Y-78800000D01*
X188205142Y-78801174D01*
X188205142Y-78801174D01*
G37*
D12*
G04 #@! TD*
G04 #@! TO.P,R2,2*
G04 #@! TO.N,Net-(D1-Pad1)*
X187937500Y-79500000D03*
D11*
G04 #@! TO.N,GND*
G04 #@! TO.C,R2*
G36*
X186330142Y-78801174D02*
X186353803Y-78804684D01*
X186377007Y-78810496D01*
X186399529Y-78818554D01*
X186421153Y-78828782D01*
X186441670Y-78841079D01*
X186460883Y-78855329D01*
X186478607Y-78871393D01*
X186494671Y-78889117D01*
X186508921Y-78908330D01*
X186521218Y-78928847D01*
X186531446Y-78950471D01*
X186539504Y-78972993D01*
X186545316Y-78996197D01*
X186548826Y-79019858D01*
X186550000Y-79043750D01*
X186550000Y-79956250D01*
X186548826Y-79980142D01*
X186545316Y-80003803D01*
X186539504Y-80027007D01*
X186531446Y-80049529D01*
X186521218Y-80071153D01*
X186508921Y-80091670D01*
X186494671Y-80110883D01*
X186478607Y-80128607D01*
X186460883Y-80144671D01*
X186441670Y-80158921D01*
X186421153Y-80171218D01*
X186399529Y-80181446D01*
X186377007Y-80189504D01*
X186353803Y-80195316D01*
X186330142Y-80198826D01*
X186306250Y-80200000D01*
X185818750Y-80200000D01*
X185794858Y-80198826D01*
X185771197Y-80195316D01*
X185747993Y-80189504D01*
X185725471Y-80181446D01*
X185703847Y-80171218D01*
X185683330Y-80158921D01*
X185664117Y-80144671D01*
X185646393Y-80128607D01*
X185630329Y-80110883D01*
X185616079Y-80091670D01*
X185603782Y-80071153D01*
X185593554Y-80049529D01*
X185585496Y-80027007D01*
X185579684Y-80003803D01*
X185576174Y-79980142D01*
X185575000Y-79956250D01*
X185575000Y-79043750D01*
X185576174Y-79019858D01*
X185579684Y-78996197D01*
X185585496Y-78972993D01*
X185593554Y-78950471D01*
X185603782Y-78928847D01*
X185616079Y-78908330D01*
X185630329Y-78889117D01*
X185646393Y-78871393D01*
X185664117Y-78855329D01*
X185683330Y-78841079D01*
X185703847Y-78828782D01*
X185725471Y-78818554D01*
X185747993Y-78810496D01*
X185771197Y-78804684D01*
X185794858Y-78801174D01*
X185818750Y-78800000D01*
X186306250Y-78800000D01*
X186330142Y-78801174D01*
X186330142Y-78801174D01*
G37*
D12*
G04 #@! TD*
G04 #@! TO.P,R2,1*
G04 #@! TO.N,GND*
X186062500Y-79500000D03*
D11*
G04 #@! TO.N,/TEMP_SNS*
G04 #@! TO.C,R1*
G36*
X186330142Y-73801174D02*
X186353803Y-73804684D01*
X186377007Y-73810496D01*
X186399529Y-73818554D01*
X186421153Y-73828782D01*
X186441670Y-73841079D01*
X186460883Y-73855329D01*
X186478607Y-73871393D01*
X186494671Y-73889117D01*
X186508921Y-73908330D01*
X186521218Y-73928847D01*
X186531446Y-73950471D01*
X186539504Y-73972993D01*
X186545316Y-73996197D01*
X186548826Y-74019858D01*
X186550000Y-74043750D01*
X186550000Y-74956250D01*
X186548826Y-74980142D01*
X186545316Y-75003803D01*
X186539504Y-75027007D01*
X186531446Y-75049529D01*
X186521218Y-75071153D01*
X186508921Y-75091670D01*
X186494671Y-75110883D01*
X186478607Y-75128607D01*
X186460883Y-75144671D01*
X186441670Y-75158921D01*
X186421153Y-75171218D01*
X186399529Y-75181446D01*
X186377007Y-75189504D01*
X186353803Y-75195316D01*
X186330142Y-75198826D01*
X186306250Y-75200000D01*
X185818750Y-75200000D01*
X185794858Y-75198826D01*
X185771197Y-75195316D01*
X185747993Y-75189504D01*
X185725471Y-75181446D01*
X185703847Y-75171218D01*
X185683330Y-75158921D01*
X185664117Y-75144671D01*
X185646393Y-75128607D01*
X185630329Y-75110883D01*
X185616079Y-75091670D01*
X185603782Y-75071153D01*
X185593554Y-75049529D01*
X185585496Y-75027007D01*
X185579684Y-75003803D01*
X185576174Y-74980142D01*
X185575000Y-74956250D01*
X185575000Y-74043750D01*
X185576174Y-74019858D01*
X185579684Y-73996197D01*
X185585496Y-73972993D01*
X185593554Y-73950471D01*
X185603782Y-73928847D01*
X185616079Y-73908330D01*
X185630329Y-73889117D01*
X185646393Y-73871393D01*
X185664117Y-73855329D01*
X185683330Y-73841079D01*
X185703847Y-73828782D01*
X185725471Y-73818554D01*
X185747993Y-73810496D01*
X185771197Y-73804684D01*
X185794858Y-73801174D01*
X185818750Y-73800000D01*
X186306250Y-73800000D01*
X186330142Y-73801174D01*
X186330142Y-73801174D01*
G37*
D12*
G04 #@! TD*
G04 #@! TO.P,R1,1*
G04 #@! TO.N,/TEMP_SNS*
X186062500Y-74500000D03*
D11*
G04 #@! TO.N,GND*
G04 #@! TO.C,R1*
G36*
X188205142Y-73801174D02*
X188228803Y-73804684D01*
X188252007Y-73810496D01*
X188274529Y-73818554D01*
X188296153Y-73828782D01*
X188316670Y-73841079D01*
X188335883Y-73855329D01*
X188353607Y-73871393D01*
X188369671Y-73889117D01*
X188383921Y-73908330D01*
X188396218Y-73928847D01*
X188406446Y-73950471D01*
X188414504Y-73972993D01*
X188420316Y-73996197D01*
X188423826Y-74019858D01*
X188425000Y-74043750D01*
X188425000Y-74956250D01*
X188423826Y-74980142D01*
X188420316Y-75003803D01*
X188414504Y-75027007D01*
X188406446Y-75049529D01*
X188396218Y-75071153D01*
X188383921Y-75091670D01*
X188369671Y-75110883D01*
X188353607Y-75128607D01*
X188335883Y-75144671D01*
X188316670Y-75158921D01*
X188296153Y-75171218D01*
X188274529Y-75181446D01*
X188252007Y-75189504D01*
X188228803Y-75195316D01*
X188205142Y-75198826D01*
X188181250Y-75200000D01*
X187693750Y-75200000D01*
X187669858Y-75198826D01*
X187646197Y-75195316D01*
X187622993Y-75189504D01*
X187600471Y-75181446D01*
X187578847Y-75171218D01*
X187558330Y-75158921D01*
X187539117Y-75144671D01*
X187521393Y-75128607D01*
X187505329Y-75110883D01*
X187491079Y-75091670D01*
X187478782Y-75071153D01*
X187468554Y-75049529D01*
X187460496Y-75027007D01*
X187454684Y-75003803D01*
X187451174Y-74980142D01*
X187450000Y-74956250D01*
X187450000Y-74043750D01*
X187451174Y-74019858D01*
X187454684Y-73996197D01*
X187460496Y-73972993D01*
X187468554Y-73950471D01*
X187478782Y-73928847D01*
X187491079Y-73908330D01*
X187505329Y-73889117D01*
X187521393Y-73871393D01*
X187539117Y-73855329D01*
X187558330Y-73841079D01*
X187578847Y-73828782D01*
X187600471Y-73818554D01*
X187622993Y-73810496D01*
X187646197Y-73804684D01*
X187669858Y-73801174D01*
X187693750Y-73800000D01*
X188181250Y-73800000D01*
X188205142Y-73801174D01*
X188205142Y-73801174D01*
G37*
D12*
G04 #@! TD*
G04 #@! TO.P,R1,2*
G04 #@! TO.N,GND*
X187937500Y-74500000D03*
D11*
G04 #@! TO.N,VDD*
G04 #@! TO.C,C9*
G36*
X164205142Y-72301174D02*
X164228803Y-72304684D01*
X164252007Y-72310496D01*
X164274529Y-72318554D01*
X164296153Y-72328782D01*
X164316670Y-72341079D01*
X164335883Y-72355329D01*
X164353607Y-72371393D01*
X164369671Y-72389117D01*
X164383921Y-72408330D01*
X164396218Y-72428847D01*
X164406446Y-72450471D01*
X164414504Y-72472993D01*
X164420316Y-72496197D01*
X164423826Y-72519858D01*
X164425000Y-72543750D01*
X164425000Y-73456250D01*
X164423826Y-73480142D01*
X164420316Y-73503803D01*
X164414504Y-73527007D01*
X164406446Y-73549529D01*
X164396218Y-73571153D01*
X164383921Y-73591670D01*
X164369671Y-73610883D01*
X164353607Y-73628607D01*
X164335883Y-73644671D01*
X164316670Y-73658921D01*
X164296153Y-73671218D01*
X164274529Y-73681446D01*
X164252007Y-73689504D01*
X164228803Y-73695316D01*
X164205142Y-73698826D01*
X164181250Y-73700000D01*
X163693750Y-73700000D01*
X163669858Y-73698826D01*
X163646197Y-73695316D01*
X163622993Y-73689504D01*
X163600471Y-73681446D01*
X163578847Y-73671218D01*
X163558330Y-73658921D01*
X163539117Y-73644671D01*
X163521393Y-73628607D01*
X163505329Y-73610883D01*
X163491079Y-73591670D01*
X163478782Y-73571153D01*
X163468554Y-73549529D01*
X163460496Y-73527007D01*
X163454684Y-73503803D01*
X163451174Y-73480142D01*
X163450000Y-73456250D01*
X163450000Y-72543750D01*
X163451174Y-72519858D01*
X163454684Y-72496197D01*
X163460496Y-72472993D01*
X163468554Y-72450471D01*
X163478782Y-72428847D01*
X163491079Y-72408330D01*
X163505329Y-72389117D01*
X163521393Y-72371393D01*
X163539117Y-72355329D01*
X163558330Y-72341079D01*
X163578847Y-72328782D01*
X163600471Y-72318554D01*
X163622993Y-72310496D01*
X163646197Y-72304684D01*
X163669858Y-72301174D01*
X163693750Y-72300000D01*
X164181250Y-72300000D01*
X164205142Y-72301174D01*
X164205142Y-72301174D01*
G37*
D12*
G04 #@! TD*
G04 #@! TO.P,C9,1*
G04 #@! TO.N,VDD*
X163937500Y-73000000D03*
D11*
G04 #@! TO.N,GND*
G04 #@! TO.C,C9*
G36*
X162330142Y-72301174D02*
X162353803Y-72304684D01*
X162377007Y-72310496D01*
X162399529Y-72318554D01*
X162421153Y-72328782D01*
X162441670Y-72341079D01*
X162460883Y-72355329D01*
X162478607Y-72371393D01*
X162494671Y-72389117D01*
X162508921Y-72408330D01*
X162521218Y-72428847D01*
X162531446Y-72450471D01*
X162539504Y-72472993D01*
X162545316Y-72496197D01*
X162548826Y-72519858D01*
X162550000Y-72543750D01*
X162550000Y-73456250D01*
X162548826Y-73480142D01*
X162545316Y-73503803D01*
X162539504Y-73527007D01*
X162531446Y-73549529D01*
X162521218Y-73571153D01*
X162508921Y-73591670D01*
X162494671Y-73610883D01*
X162478607Y-73628607D01*
X162460883Y-73644671D01*
X162441670Y-73658921D01*
X162421153Y-73671218D01*
X162399529Y-73681446D01*
X162377007Y-73689504D01*
X162353803Y-73695316D01*
X162330142Y-73698826D01*
X162306250Y-73700000D01*
X161818750Y-73700000D01*
X161794858Y-73698826D01*
X161771197Y-73695316D01*
X161747993Y-73689504D01*
X161725471Y-73681446D01*
X161703847Y-73671218D01*
X161683330Y-73658921D01*
X161664117Y-73644671D01*
X161646393Y-73628607D01*
X161630329Y-73610883D01*
X161616079Y-73591670D01*
X161603782Y-73571153D01*
X161593554Y-73549529D01*
X161585496Y-73527007D01*
X161579684Y-73503803D01*
X161576174Y-73480142D01*
X161575000Y-73456250D01*
X161575000Y-72543750D01*
X161576174Y-72519858D01*
X161579684Y-72496197D01*
X161585496Y-72472993D01*
X161593554Y-72450471D01*
X161603782Y-72428847D01*
X161616079Y-72408330D01*
X161630329Y-72389117D01*
X161646393Y-72371393D01*
X161664117Y-72355329D01*
X161683330Y-72341079D01*
X161703847Y-72328782D01*
X161725471Y-72318554D01*
X161747993Y-72310496D01*
X161771197Y-72304684D01*
X161794858Y-72301174D01*
X161818750Y-72300000D01*
X162306250Y-72300000D01*
X162330142Y-72301174D01*
X162330142Y-72301174D01*
G37*
D12*
G04 #@! TD*
G04 #@! TO.P,C9,2*
G04 #@! TO.N,GND*
X162062500Y-73000000D03*
D20*
G04 #@! TO.N,/TEMP_SNS*
X173824990Y-73025000D03*
X177790874Y-72660002D03*
G04 #@! TO.N,GND*
X181750000Y-78625000D03*
X185062500Y-78500000D03*
X187500000Y-73000000D03*
X159159307Y-72340693D03*
X160750000Y-70750000D03*
X158952956Y-74645586D03*
X165735000Y-73660000D03*
X172085000Y-78105000D03*
X163830000Y-82550000D03*
G04 #@! TO.N,/LED*
X174625000Y-74295000D03*
X177280354Y-74929995D03*
G04 #@! TO.N,Net-(C5-Pad1)*
X172545024Y-79285046D03*
X166672500Y-79375000D03*
G04 #@! TO.N,VDD*
X162358578Y-76391422D03*
X163937500Y-73000000D03*
X172085000Y-83820000D03*
X172745549Y-81320203D03*
G04 #@! TO.N,Net-(C3-Pad1)*
X167005000Y-72390000D03*
X174625000Y-76360000D03*
X172647885Y-73732115D03*
G04 #@! TO.N,/OSC_EN*
X164465000Y-76835000D03*
X171617380Y-74557549D03*
G04 #@! TO.N,/TEMP_PWR*
X166370009Y-70275020D03*
X177942195Y-74178230D03*
G04 #@! TD*
D21*
G04 #@! TO.N,/TEMP_SNS*
X184500000Y-74500000D02*
X184000000Y-75000000D01*
X186062500Y-74500000D02*
X184500000Y-74500000D01*
X168275000Y-76360000D02*
X168275000Y-75910000D01*
X173424991Y-72625001D02*
X173824990Y-73025000D01*
X168275000Y-75910000D02*
X169924989Y-74260011D01*
X172418542Y-72625001D02*
X173424991Y-72625001D01*
X170783532Y-74260011D02*
X172418542Y-72625001D01*
X169924989Y-74260011D02*
X170783532Y-74260011D01*
X178356559Y-72660002D02*
X177790874Y-72660002D01*
X184000000Y-75000000D02*
X181874485Y-72874485D01*
X178571042Y-72874485D02*
X178356559Y-72660002D01*
X181874485Y-72874485D02*
X178571042Y-72874485D01*
G04 #@! TO.N,GND*
X180000000Y-78625000D02*
X181750000Y-78625000D01*
X181750000Y-78625000D02*
X183500000Y-78625000D01*
X186062500Y-79500000D02*
X185062500Y-78500000D01*
X184937500Y-78625000D02*
X183500000Y-78625000D01*
X185062500Y-78500000D02*
X184937500Y-78625000D01*
X187937500Y-74500000D02*
X187937500Y-73437500D01*
X187937500Y-73437500D02*
X187500000Y-73000000D01*
X158968614Y-72150000D02*
X159159307Y-72340693D01*
X157850000Y-72150000D02*
X158968614Y-72150000D01*
X162062500Y-73000000D02*
X162062500Y-70750000D01*
X162062500Y-70750000D02*
X160750000Y-70750000D01*
X158807370Y-74500000D02*
X158952956Y-74645586D01*
X157875000Y-74500000D02*
X158807370Y-74500000D01*
X170535000Y-73660000D02*
X165735000Y-73660000D01*
X172085000Y-70960000D02*
X172084999Y-72110001D01*
X172084999Y-72110001D02*
X170535000Y-73660000D01*
X170394988Y-78110012D02*
X171683533Y-78110012D01*
X171683533Y-78110012D02*
X171688545Y-78105000D01*
X170180001Y-78324999D02*
X170394988Y-78110012D01*
X170180000Y-79335000D02*
X170180001Y-78324999D01*
X171688545Y-78105000D02*
X172085000Y-78105000D01*
X165432500Y-83185000D02*
X164465000Y-83185000D01*
X164465000Y-83185000D02*
X163830000Y-82550000D01*
G04 #@! TO.N,/LED*
X174625000Y-70960000D02*
X174625000Y-74295000D01*
X186062500Y-77000000D02*
X179350359Y-77000000D01*
X177680353Y-75329994D02*
X177280354Y-74929995D01*
X179350359Y-77000000D02*
X177680353Y-75329994D01*
G04 #@! TO.N,Net-(C5-Pad1)*
X172495070Y-79335000D02*
X172545024Y-79285046D01*
X171130000Y-79335000D02*
X172495070Y-79335000D01*
G04 #@! TO.N,/RF_DATA*
X170045000Y-77510000D02*
X171385000Y-77510000D01*
X172085000Y-76810000D02*
X172085000Y-76360000D01*
X169230000Y-79335000D02*
X169230000Y-78325000D01*
X171385000Y-77510000D02*
X172085000Y-76810000D01*
X169230000Y-78325000D02*
X170045000Y-77510000D01*
G04 #@! TO.N,/RF_CLK*
X169530000Y-80645000D02*
X169230000Y-80945000D01*
X173355000Y-76360000D02*
X173355000Y-79606458D01*
X172316458Y-80645000D02*
X169530000Y-80645000D01*
X173355000Y-79606458D02*
X172316458Y-80645000D01*
X169230000Y-80945000D02*
X169230000Y-81955000D01*
G04 #@! TO.N,Net-(C1-Pad2)*
X170180000Y-82660002D02*
X170180000Y-81955000D01*
X170519998Y-83000000D02*
X170180000Y-82660002D01*
X174000000Y-83000000D02*
X170519998Y-83000000D01*
X174000000Y-81905000D02*
X174000000Y-83000000D01*
X176197500Y-79375000D02*
X176197500Y-80802500D01*
X176197500Y-80802500D02*
X175720000Y-81280000D01*
X175720000Y-81280000D02*
X174625000Y-81280000D01*
X174625000Y-81280000D02*
X174000000Y-81905000D01*
G04 #@! TO.N,VDD*
X153650000Y-70850000D02*
X156150000Y-70850000D01*
X153000000Y-71500000D02*
X153650000Y-70850000D01*
X155412500Y-74500000D02*
X155000000Y-74087500D01*
X156000000Y-74500000D02*
X155412500Y-74500000D01*
X155000000Y-74087500D02*
X155000000Y-71000000D01*
X156000000Y-80500000D02*
X156000000Y-76250000D01*
X157000000Y-81500000D02*
X156000000Y-80500000D01*
X159000000Y-81500000D02*
X157000000Y-81500000D01*
X156000000Y-76250000D02*
X156000000Y-74500000D01*
X156141422Y-76391422D02*
X161792893Y-76391422D01*
X161792893Y-76391422D02*
X162358578Y-76391422D01*
X156000000Y-76250000D02*
X156141422Y-76391422D01*
X163602074Y-69475010D02*
X169780010Y-69475010D01*
X163937500Y-73000000D02*
X163049990Y-72112490D01*
X163049990Y-72112490D02*
X163049990Y-70027094D01*
X163049990Y-70027094D02*
X163602074Y-69475010D01*
X170815000Y-70510000D02*
X170815000Y-70960000D01*
X169780010Y-69475010D02*
X170815000Y-70510000D01*
X171855000Y-81955000D02*
X174322500Y-79487500D01*
X171130000Y-81955000D02*
X171855000Y-81955000D01*
X174322500Y-79487500D02*
X174322500Y-79375000D01*
X169856455Y-83185000D02*
X170491455Y-83820000D01*
X167307500Y-83185000D02*
X169856455Y-83185000D01*
X170491455Y-83820000D02*
X172085000Y-83820000D01*
X167307500Y-83185000D02*
X165402500Y-81280000D01*
X165402500Y-81280000D02*
X164465000Y-81280000D01*
X162358578Y-76957107D02*
X162358578Y-76391422D01*
X164465000Y-81280000D02*
X162358578Y-79173578D01*
X162358578Y-79173578D02*
X162358578Y-76957107D01*
G04 #@! TO.N,Net-(C3-Pad1)*
X163937500Y-70750000D02*
X165365000Y-70750000D01*
X165365000Y-70750000D02*
X167005000Y-72390000D01*
X174625000Y-76360000D02*
X174625000Y-75910000D01*
X174625000Y-75910000D02*
X172647885Y-73932885D01*
X172647885Y-73932885D02*
X172647885Y-73732115D01*
G04 #@! TO.N,/26MHZ*
X169545000Y-76360000D02*
X169545000Y-76810000D01*
X169545000Y-76810000D02*
X168844999Y-77510001D01*
X168844999Y-77510001D02*
X166324005Y-77510001D01*
X164797500Y-77858496D02*
X165735000Y-76920996D01*
X164797500Y-79375000D02*
X164797500Y-77858496D01*
X166324005Y-77510001D02*
X165735000Y-76920996D01*
X158800000Y-70850000D02*
X157850000Y-70850000D01*
X160020000Y-72070000D02*
X158800000Y-70850000D01*
X163744004Y-74930000D02*
X161925000Y-74930000D01*
X165735000Y-76920996D02*
X163744004Y-74930000D01*
X161925000Y-74930000D02*
X160020000Y-73025000D01*
X160020000Y-73025000D02*
X160020000Y-72070000D01*
G04 #@! TO.N,/OSC_EN*
X170815000Y-76360000D02*
X170815000Y-75910000D01*
X170815000Y-75910000D02*
X171617380Y-75107620D01*
X171617380Y-75107620D02*
X171617380Y-74557549D01*
X158314614Y-73000001D02*
X159198946Y-73884333D01*
X163160011Y-75530011D02*
X164065001Y-76435001D01*
X159198946Y-73884333D02*
X160030790Y-73884333D01*
X160030790Y-73884333D02*
X161676468Y-75530011D01*
X157100000Y-73000000D02*
X158314614Y-73000001D01*
X156250000Y-72150000D02*
X157100000Y-73000000D01*
X156150000Y-72150000D02*
X156250000Y-72150000D01*
X161676468Y-75530011D02*
X163160011Y-75530011D01*
X164065001Y-76435001D02*
X164465000Y-76835000D01*
G04 #@! TO.N,/TEMP_PWR*
X168275000Y-70960000D02*
X169545000Y-70960000D01*
X168275000Y-70960000D02*
X167054989Y-70960000D01*
X167054989Y-70960000D02*
X166770008Y-70675019D01*
X166770008Y-70675019D02*
X166370009Y-70275020D01*
X181500000Y-75000000D02*
X178763965Y-75000000D01*
X178342194Y-74578229D02*
X177942195Y-74178230D01*
X178763965Y-75000000D02*
X178342194Y-74578229D01*
G04 #@! TO.N,/SWDIO*
X181880000Y-70960000D02*
X181920000Y-71000000D01*
X175895000Y-70960000D02*
X181880000Y-70960000D01*
G04 #@! TO.N,/SWCLK*
X179089005Y-71860001D02*
X179479005Y-72250001D01*
X186150001Y-71849999D02*
X187000000Y-71000000D01*
X177406873Y-71860001D02*
X179089005Y-71860001D01*
X179479005Y-72250001D02*
X185749999Y-72250001D01*
X175895000Y-76360000D02*
X175895000Y-73371874D01*
X185749999Y-72250001D02*
X186150001Y-71849999D01*
X175895000Y-73371874D02*
X177406873Y-71860001D01*
G04 #@! TO.N,Net-(C7-Pad2)*
X182000000Y-83000000D02*
X179875000Y-83000000D01*
X179875000Y-80625000D02*
X180000000Y-80500000D01*
X179875000Y-83000000D02*
X179875000Y-80625000D01*
G04 #@! TO.N,Net-(AE1-Pad1)*
X187000000Y-83000000D02*
X183875000Y-83000000D01*
X183875000Y-80875000D02*
X183500000Y-80500000D01*
X183875000Y-83000000D02*
X183875000Y-80875000D01*
G04 #@! TO.N,Net-(C1-Pad1)*
X178000000Y-83000000D02*
X175875000Y-83000000D01*
G04 #@! TO.N,Net-(D1-Pad1)*
X187937500Y-79500000D02*
X187937500Y-77000000D01*
G04 #@! TD*
M02*
